<?xml version="1.0" encoding="utf-8"?>
<!DOCTYPE svg PUBLIC "-//W3C//DTD SVG 1.1//EN" "http://www.w3.org/Graphics/SVG/1.1/DTD/svg11.dtd">
<svg
	version="1.1"
	xmlns="http://www.w3.org/2000/svg"
	xmlns:xlink="http://www.w3.org/1999/xlink"
	xml:space="preserve"
	width="500"
	height="40">

	<defs>
		<filter id="MaskFilter" filterUnits="userSpaceOnUse" x="0" y="0" width="20" height="20">
			<feColorMatrix type="matrix" values="1 0 0 0 0  0 1 0 0 0  0 0 1 0 0  0 0 0 1 0" color-interpolation-filters="sRGB" result="source"/>
			<feFlood style="flood-color: black; flood-opacity: 1" result="back"/>
			<feBlend in="source" in2="back" mode="normal"/>
		</filter>
	</defs>

	<mask maskContentUnits="objectBoundingBox" id="mask_menu">
		<rect x="0" y="0" width="1" height="1"/>
		<g filter="url(#MaskFilter)" transform="scale(0.05)">
			<rect x="0" y="2" fill="white" width="20" height="4"/>
			<rect x="0" y="8" fill="white" width="20" height="4"/>
			<rect x="0" y="14" fill="white" width="20" height="4"/>
		</g>
	</mask>

	<mask maskContentUnits="objectBoundingBox" id="mask_gear">
		<rect x="0" y="0" width="1" height="1"/>
		<g filter="url(#MaskFilter)" transform="scale(0.05)">
			<path fill="white" d="
				M18.49463,10.11182
				c-1.28613-0.43359-1.19238-0.28369-1.45508-1.45313
				l0,0
				c-0.25977-1.1709-0.28125-0.99414,0.69434-1.95166
				c0.86035-0.84473,1.49316-1.13672,0.17188-2.82617
				c-1.32031-1.68994-1.74219-1.12744-2.74316-0.46338
				c-1.13574,0.75342-0.96191,0.77197-2.02344,0.25098
				l0,0
				c-0.00293-0.00098-0.00391-0.00195-0.00586-0.00293
				l0,0
				c-0.00098,0-0.00195-0.00049-0.00195-0.00049
				c-0.00098-0.00098-0.00195-0.00146-0.00391-0.00195
				c-1.05566-0.51855-0.93359-0.39453-1.0625-1.76611
				C11.95264,0.68604,12.12158,0,10.00049,0
				c-2.12012,0-1.95117,0.68604-2.06445,1.89697
				c-0.12793,1.37158-0.00586,1.24756-1.0625,1.76611
				c-0.00098,0.00049-0.00195,0.00098-0.00293,0.00146
				l-0.00098,0.00049
				l0,0
				c-1.0625,0.52002-0.88867,0.50146-2.02344-0.25293
				c-1-0.66553-1.4209-1.22803-2.74414,0.45996
				c-1.32227,1.68848-0.69043,1.98145,0.16895,2.82666
				c0.97461,0.9585,0.9541,0.78223,0.69238,1.95166
				l0,0
				c-0.2627,1.16992-0.16895,1.02002-1.45605,1.45264
				c-1.13477,0.38135-1.8291,0.36572-1.35742,2.47119
				c0.4707,2.10547,1.08984,1.78467,2.27539,1.62793
				c1.34277-0.17773,1.19531-0.27148,1.92969,0.66602
				l0,0
				c0.73438,0.93945,0.67773,0.771,0.20703,2.06494
				c-0.41406,1.14111-0.85938,1.68408,1.05078,2.62158
				c1.91016,0.93799,2.05078,0.24512,2.66895-0.7959
				c0.70117-1.17969,0.53711-1.12061,1.71484-1.12061
				l0,0
				c1.17871,0.00146,1.01465-0.05859,1.71484,1.12256
				c0.61719,1.04199,0.75586,1.73486,2.66797,0.79883
				c1.91113-0.93555,1.4668-1.479,1.05273-2.62061
				c-0.46875-1.29395-0.52539-1.12646,0.20898-2.06396
				l0,0
				c0.73633-0.9375,0.58789-0.84424,1.93164-0.66455
				c1.18457,0.15771,1.80371,0.479,2.27637-1.62549
				C20.32275,10.47949,19.62842,10.49463,18.49463,10.11182
				z

				M12.93311,10.28809
				c0,1.18457-0.67871,2.2085-1.66113,2.69043
				H11.271
				V12.979
				c-0.38379,0.18848-0.81543,0.29395-1.27051,0.29395
				c-0.45605,0-0.8877-0.10596-1.27246-0.29541
				l-0.00098-0.00049
				l0,0
				c-0.98145-0.48242-1.6582-1.50537-1.6582-2.68896
				c0-1.64893,1.3125-2.98535,2.93164-2.98535
				S12.93311,8.63916,12.93311,10.28809
				z"/>
		</g>
	</mask>

	<mask maskContentUnits="objectBoundingBox" id="mask_plus">
		<rect x="0" y="0" width="1" height="1"/>
		<g filter="url(#MaskFilter)" transform="scale(0.05)">
			<rect x="8" y="2" fill="white" width="4" height="16"/>
			<rect x="2" y="8" fill="white" width="16" height="4"/>
		</g>
	</mask>

	<mask maskContentUnits="objectBoundingBox" id="mask_up">
		<rect x="0" y="0" width="1" height="1"/>
		<g filter="url(#MaskFilter)" transform="scale(0.05)">
			<polygon fill="white" points="18,14 10,6 2,14"/>
		</g>
	</mask>

	<mask maskContentUnits="objectBoundingBox" id="mask_down">
		<rect x="0" y="0" width="1" height="1"/>
		<g filter="url(#MaskFilter)" transform="scale(0.05)">
			<polygon fill="white" points="2,6 10,14 18,6"/>
		</g>
	</mask>

	<mask maskContentUnits="objectBoundingBox" id="mask_dots">
		<rect x="0" y="0" width="1" height="1"/>
		<g filter="url(#MaskFilter)" transform="scale(0.05)">
			<rect x="11" y="3" fill="white" width="2" height="2"/>
			<rect x="7" y="7" fill="white" width="2" height="2"/>
			<rect x="11" y="11" fill="white" width="2" height="2"/>
			<rect x="7" y="15" fill="white" width="2" height="2"/>
			<rect x="7" y="11" fill="white" width="2" height="2"/>
			<rect x="11" y="15" fill="white" width="2" height="2"/>
			<rect x="11" y="7" fill="white" width="2" height="2"/>
			<rect x="7" y="3" fill="white" width="2" height="2"/>
		</g>
	</mask>

	<mask maskContentUnits="objectBoundingBox" id="mask_align_left">
		<rect x="0" y="0" width="1" height="1"/>
		<g filter="url(#MaskFilter)" transform="scale(0.05)">
			<rect x="0" y="0" fill="white" width="17" height="2"/>
			<rect x="0" y="3" fill="white" width="13" height="2"/>
			<rect x="0" y="6" fill="white" width="20" height="2"/>
			<rect x="0" y="9" fill="white" width="18" height="2"/>
			<rect x="0" y="12" fill="white" width="12" height="2"/>
			<rect x="0" y="15" fill="white" width="17" height="2"/>
			<rect x="0" y="18" fill="white" width="14" height="2"/>
		</g>
	</mask>

	<mask maskContentUnits="objectBoundingBox" id="mask_align_center">
		<rect x="0" y="0" width="1" height="1"/>
		<g filter="url(#MaskFilter)" transform="scale(0.05)">
			<rect x="1" y="0" fill="white" width="18" height="2"/>
			<rect x="4" y="3" fill="white" width="12" height="2"/>
			<rect x="0" y="6" fill="white" width="20" height="2"/>
			<rect x="1" y="9" fill="white" width="18" height="2"/>
			<rect x="4" y="12" fill="white" width="12" height="2"/>
			<rect x="1" y="15" fill="white" width="18" height="2"/>
			<rect x="3" y="18" fill="white" width="14" height="2"/>
		</g>
	</mask>

	<mask maskContentUnits="objectBoundingBox" id="mask_align_right">
		<rect x="0" y="0" width="1" height="1"/>
		<g filter="url(#MaskFilter)" transform="scale(0.05)">
			<rect x="3" y="0" fill="white" width="17" height="2"/>
			<rect x="7" y="3" fill="white" width="13" height="2"/>
			<rect x="0" y="6" fill="white" width="20" height="2"/>
			<rect x="2" y="9" fill="white" width="18" height="2"/>
			<rect x="8" y="12" fill="white" width="12" height="2"/>
			<rect x="3" y="15" fill="white" width="17" height="2"/>
			<rect x="6" y="18" fill="white" width="14" height="2"/>
		</g>
	</mask>

	<mask maskContentUnits="objectBoundingBox" id="mask_recycle_bin">
		<rect x="0" y="0" width="1" height="1"/>
		<g filter="url(#MaskFilter)" transform="scale(0.05)">
			<path fill="white" d="
				M14,4 V1 h-7 v3 h-4 v2 h15 V4 H14 z
				M9,3 h3 v1 h-3 z
				M5,7 v12 h11 V7 H5 z
				M11,9 v8 h-1 v-8 z
				M7,9 h1 v8 h-1 z
				M13,9 h1 v8 h-1 z"/>
		</g>
	</mask>

	<mask maskContentUnits="objectBoundingBox" id="mask_form">
		<rect x="0" y="0" width="1" height="1"/>
		<g filter="url(#MaskFilter)" transform="scale(0.05)">
			<path fill="white" d="
				M14,3 h-6.82861 L4,6.17139 V16 v2 h2 h8 h2 v-2 V5 V3 H14 z
				M14,16 h-8 V7 l2-2 h6 V16 z"/>
			<path transform="translate(18 3) rotate(45 0 0) translate(-1.5 0)" fill="white" d="M0,0 h2.5 v10 l-1.25 1.25 l-1.25 -1.25 z"/>
		</g>
	</mask>

	<mask maskContentUnits="objectBoundingBox" id="mask_x">
		<rect x="0" y="0" width="1" height="1"/>
		<g filter="url(#MaskFilter)" transform="scale(0.05)">
			<rect x="0" y="0" transform="translate(10, 10) rotate(45 0 0) translate(-1.06065 -8)" fill="white" width="2.1213" height="16"/>
			<rect x="0" y="0" transform="translate(10, 10) rotate(-45 0 0) translate(-1.06065 -8)" fill="white" width="2.1213" height="16"/>
		</g>
	</mask>

	<mask maskContentUnits="objectBoundingBox" id="mask_checkbox">
		<rect x="0" y="0" width="1" height="1"/>
		<g filter="url(#MaskFilter)" transform="scale(0.05)">
			<path fill="#444" d="
				M5,4 h11 v11 h-11 v-12 h-1 v13 h13 v-13 h-12 z"/>
		</g>
	</mask>

	<mask maskContentUnits="objectBoundingBox" id="mask_checkbox_checked">
		<rect x="0" y="0" width="1" height="1"/>
		<g filter="url(#MaskFilter)" transform="scale(0.05)">
			<path fill="#444" d="
				M5,4 h11 v11 h-11 v-12 h-1 v13 h13 v-13 h-12 z"/>
			<g transform="translate(10, 12) rotate(45 0 0) translate(-1.06065 -12)">
				<rect x="0" y="0" fill="white" width="2" height="14"/>
				<rect x="-6" y="12" fill="white" width="6" height="2"/>
			</g>
		</g>
	</mask>

	<mask maskContentUnits="objectBoundingBox" id="mask_checkbox2">
		<rect x="0" y="0" width="1" height="1"/>
		<g filter="url(#MaskFilter)" transform="scale(0.05)">
			<path fill="white" d="
				M6,5 h9 v9 h-9 v-11 h-2 v13 h13 v-13 h-11 z"/>
		</g>
	</mask>

	<mask maskContentUnits="objectBoundingBox" id="mask_checkbox2_checked">
		<rect x="0" y="0" width="1" height="1"/>
		<g filter="url(#MaskFilter)" transform="scale(0.05)">
			<path fill="white" d="
				M6,5 h9 v9 h-9 v-11 h-2 v13 h13 v-13 h-11 z"/>
			<g transform="translate(10, 12) rotate(45 0 0) translate(-1.06065 -12)">
				<rect x="0" y="0" fill="white" width="1.5" height="14"/>
				<rect x="-6" y="12.5" fill="white" width="6" height="1.5"/>
			</g>
		</g>
	</mask>

	<mask maskContentUnits="objectBoundingBox" id="mask_user">
		<rect x="0" y="0" width="1" height="1"/>
		<g filter="url(#MaskFilter)" transform="scale(0.05)">
			<ellipse fill="white" cx="10" cy="20" rx="9" ry="9"/>
			<circle fill="black" cx="10" cy="7" r="7"/>
			<circle fill="white" cx="10" cy="7" r="5"/>
		</g>
	</mask>

	<mask maskContentUnits="objectBoundingBox" id="mask_user_add">
		<g filter="url(#MaskFilter)" transform="scale(0.05)">
			<ellipse fill="white" cx="10" cy="20" rx="9" ry="9"/>
			<circle fill="black" cx="10" cy="7" r="7"/>
			<circle fill="white" cx="10" cy="7" r="5"/>
			<rect fill="white" x="14" y="2" width="6" height="2"/>
			<rect fill="white" x="16" y="0" width="2" height="6"/>
		</g>
	</mask>

	<mask maskContentUnits="objectBoundingBox" id="mask_eye">
		<rect x="0" y="0" width="1" height="1"/>
		<g filter="url(#MaskFilter)" transform="scale(0.05)">
			<path fill="none" stroke-width="1" stroke="white" d="
				M2,10 c2,-7 14,-7 16,0 c-2,7 -14,7 -16,0"/>
			<circle fill="white" cx="10" cy="10" r="4"/>
			<circle fill="black" cx="8" cy="8" r="2"/>
		</g>
	</mask>

	<mask maskContentUnits="objectBoundingBox" id="mask_import">
		<rect x="0" y="0" width="1" height="1"/>
		<g filter="url(#MaskFilter)" transform="scale(0.05)">
			<rect fill="white" x="1" y="17" width="18" height="1"/>
			<rect fill="white" x="1" y="16" width="1" height="2"/>
			<rect fill="white" x="18" y="16" width="1" height="2"/>
			<g transform="translate(-5,-4) translate(20,20) scale(-1)">
				<path fill="white" d="M5,0 l-5,6 l5,0 l5,0 z"/>
				<path fill="none" stroke="white" stroke-width="3" d="M5,4 c0,3 0,7 4,10"/>
			</g>
		</g>
	</mask>

	<mask maskContentUnits="objectBoundingBox" id="mask_export">
		<rect x="0" y="0" width="1" height="1"/>
		<g filter="url(#MaskFilter)" transform="scale(0.05)">
			<rect fill="white" x="1" y="17" width="18" height="1"/>
			<rect fill="white" x="1" y="16" width="1" height="2"/>
			<rect fill="white" x="18" y="16" width="1" height="2"/>
			<g transform="translate(12.5,-1) rotate(45)">
				<path fill="white" d="M5,0 l-5,6 l5,0 l5,0 z"/>
				<path fill="none" stroke="white" stroke-width="3" d="M5,4 c0,3 0,7 4,10"/>
			</g>
		</g>
	</mask>

	<mask maskContentUnits="objectBoundingBox" id="mask_question">
		<rect x="0" y="0" width="1" height="1"/>
		<g filter="url(#MaskFilter)" transform="scale(0.05)">
			<circle fill="white" cx="8" cy="18" r="1.5"/>
			<path fill="none" stroke="white" stroke-width="2.5" d="M8,15 c0,-3 1,-4 4,-6 C16,4 8,0 5,6"/>
		</g>
	</mask>

	<mask maskContentUnits="objectBoundingBox" id="mask_information">
		<rect x="0" y="0" width="1" height="1"/>
		<g filter="url(#MaskFilter)" transform="scale(0.05)">
			<circle fill="white" cx="9" cy="4.5" r="1.5"/>
			<path transform="translate(8,12) scale(1.2, 0.4)" fill="none" stroke="white" stroke-width="2.5" stroke-linecap="round" d="M1,11 C-1.5,12 0,3 0,0 0,-3 1.5,-12 -1,-11"/>
		</g>
	</mask>

	<mask maskContentUnits="objectBoundingBox" id="mask_exit">
		<rect x="0" y="0" width="1" height="1"/>
		<g filter="url(#MaskFilter)" transform="scale(0.05)">
			<rect fill="none" stroke="white" stroke-width="1" x="2.5" y="1.5" width="10" height="14"/>
			<rect transform="skewY(30)" fill="white" stroke="white" stroke-width="1" x="2.5" y="0.5" width="6" height="14"/>
			<rect fill="black" x="10" y="7" height="4" width="4"/>
			<rect fill="white" x="10" y="8" height="2" width="4"/>
			<path fill="white" d="M10,8 m4,1 l0,3 l3,-3 l-3,-3z"/>
		</g>
	</mask>

	<mask maskContentUnits="objectBoundingBox" id="mask_key">
		<g filter="url(#MaskFilter)" transform="scale(0.05)">
			<g transform="translate(10.5,-6) scale(1.2) rotate(45)">
				<circle fill="white" cx="5" cy="10" r="4.5"/>
				<path fill="white" d="M5,10 l2.25,-2.25 h10 l2,2 l-2.5,2.5 h-10 z"/>
				<g transform="translate(11,7) rotate(45) translate(6,0)">
					<rect fill="black" x="0" y="0" width="3" height="3"/>
					<rect fill="black" x="-1.5" y="1.5" width="3" height="3"/>
					<rect fill="black" x="-3" y="3" width="3" height="3"/>
				</g>
				<circle fill="black" cx="3.5" cy="10" r="2"/>
			</g>
		</g>
	</mask>

	<defs>
		<g id="icons">
			<rect width="20" height="20" x="0" y="0" id="icon_menu" mask="url(#mask_menu)"/>
			<rect width="20" height="20" x="20" y="0" id="icon_gear" mask="url(#mask_gear)"/>
			<rect width="20" height="20" x="40" y="0" id="icon_plus" mask="url(#mask_plus)"/>
			<rect width="20" height="20" x="60" y="0" id="icon_up" mask="url(#mask_up)"/>
			<rect width="20" height="20" x="80" y="0" id="icon_down" mask="url(#mask_down)"/>
			<rect width="20" height="20" x="100" y="0" id="icon_dots" mask="url(#mask_dots)"/>
			<rect width="20" height="20" x="120" y="0" id="icon_align_left" mask="url(#mask_align_left)"/>
			<rect width="20" height="20" x="140" y="0" id="icon_align_center" mask="url(#mask_align_center)"/>
			<rect width="20" height="20" x="160" y="0" id="icon_align_right" mask="url(#mask_align_right)"/>
			<rect width="20" height="20" x="180" y="0" id="icon_recycle_bin" mask="url(#mask_recycle_bin)"/>
			<rect width="20" height="20" x="200" y="0" id="icon_form" mask="url(#mask_form)"/>
			<rect width="20" height="20" x="220" y="0" id="icon_x" mask="url(#mask_x)"/>
			<rect width="20" height="20" x="240" y="0" id="icon_checkbox" mask="url(#mask_checkbox)"/>
			<rect width="20" height="20" x="260" y="0" id="icon_checkbox_checked" mask="url(#mask_checkbox_checked)"/>
			<rect width="20" height="20" x="280" y="0" id="icon_checkbox2" mask="url(#mask_checkbox2)"/>
			<rect width="20" height="20" x="300" y="0" id="icon_checkbox2_checked" mask="url(#mask_checkbox2_checked)"/>
			<rect width="20" height="20" x="320" y="0" id="icon_user" mask="url(#mask_user)"/>
			<rect width="20" height="20" x="340" y="0" id="icon_user_add" mask="url(#mask_user_add)"/>
			<rect width="20" height="20" x="360" y="0" id="icon_eye" mask="url(#mask_eye)"/>
			<rect width="20" height="20" x="380" y="0" id="icon_export" mask="url(#mask_export)"/>
			<rect width="20" height="20" x="400" y="0" id="icon_import" mask="url(#mask_import)"/>
			<rect width="20" height="20" x="420" y="0" id="icon_question" mask="url(#mask_question)"/>
			<rect width="20" height="20" x="440" y="0" id="icon_information" mask="url(#mask_information)"/>
			<rect width="20" height="20" x="460" y="0" id="icon_exit" mask="url(#mask_exit)"/>
			<rect width="20" height="20" x="480" y="0" id="icon_key" mask="url(#mask_key)"/>
		</g>
	</defs>
	<use x="0" y="0" fill="#000" xlink:href="#icons"/>
	<use x="0" y="20" fill="#7FB4FF" xlink:href="#icons"/>

</svg>
