<?xml version="1.0" encoding="utf-8"?>
<!DOCTYPE svg PUBLIC "-//W3C//DTD SVG 1.1//EN" "http://www.w3.org/Graphics/SVG/1.1/DTD/svg11.dtd">
<svg
	version="1.1"
	xmlns="http://www.w3.org/2000/svg"
	xmlns:xlink="http://www.w3.org/1999/xlink"
	xml:space="preserve">

<defs>
	<g id="corner">
		<path d="M3,0 C0.5,0 0,0.5 0,3 L-1,-1"/>
	</g>

	<g id="diagonal-helper-line">
		<g transform="translate(0.35,0.8)">
			<path d="M0,0 l-18,41 h3 l18,-41 z"/>
		</g>
	</g>

	<mask id="diagonal-helper-mask2">
		<use fill="white" transform="translate(-3 -3) scale(2 2)" xlink:href="#diagonal-helper-line"/>
		<use fill="black" xlink:href="#diagonal-helper-line"/>
	</mask>

	<mask id="diagonal-helper-mask1">
		<g mask="url(#diagonal-helper-mask2)">
			<use fill="white" xlink:href="#corner"/>
			<rect fill="white" x="-4" y="0" width="4" height="4"/>
			<use fill="white" transform="translate(-18 41)" xlink:href="#corner"/>
			<rect fill="white" transform="translate(-18 41)" x="-4" y="0" width="4" height="4"/>
			<use fill="white" transform="translate(-3 0)" xlink:href="#diagonal-helper-line"/>
		</g>
	</mask>

	<g id="diagonal">
		<g mask="url(#diagonal-helper-mask1)">
			<rect x="-20" width="40" height="70" y="0"/>
		</g>
	</g>
</defs>

<g transform="translate(10 10) ">

	<g fill="#383838" id="lane">
		<g id="lane-l">
			<mask id="lane-l-mask">
				<rect fill="white" x="0" y="0" width="21" height="50"/>
				<rect fill="white" x="20" y="41" width="20" height="9"/>
				<use fill="black" xlink:href="#corner"/>
				<use transform="translate(21) scale(-1 1)" fill="black" xlink:href="#corner"/>
				<use transform="translate(40 41) scale(-1 1)" fill="black" xlink:href="#corner"/>
				<use transform="translate(40 50) scale(-1 -1)" fill="black" xlink:href="#corner"/>
				<use transform="translate(0 50) scale(1 -1)" fill="black" xlink:href="#corner"/>
			</mask>
			<rect x="0" y="0" width="41" height="50" mask="url(#lane-l-mask)"/>
		</g>

		<g transform="translate(43)" id="lane-a">
			<g id="lane-a-left">
				<mask fill="white" id="lane-a-left-mask">
					<path fill="white" d="M18,0 l-18,41 v9 h26 L32,0 z"/>
					<rect fill="white" x="30" y="6" width="6" height="4"/>
					<rect fill="white" x="28" y="23" width="8" height="9"/>
					<use transform="translate(0 50) scale(1 -1)" fill="black" xlink:href="#corner"/>
					<use transform="translate(18 0)" fill="black" xlink:href="#diagonal"/>
				</mask>
				<rect x="0" y="0" width="36" height="50" mask="url(#lane-a-left-mask)"/>
			</g>
			<g id="lane-a-right">
				<use transform="translate(71) scale(-1 1)" xlink:href="#lane-a-left"/>
			</g>
		</g>

		<g transform="translate(118)" id="lane-n">
			<mask id="lane-n-mask">
				<path fill="white" d="M21,0 l3,0 l18,41 L38,50 h-3 l-18,-41 z"/>
				<use transform="translate(24 0) scale(-1 1)" fill="black" xlink:href="#diagonal"/>
				<use transform="translate(35 50) scale(1 -1)" fill="black" xlink:href="#diagonal"/>
				<rect fill="white" x="0" y="0" width="21" height="50"/>
				<rect fill="white" x="38" y="0" width="21" height="50"/>
				<use fill="black" xlink:href="#corner"/>
				<use fill="black" xlink:href="#corner"/>
				<use transform="translate(0 50) scale(1 -1)" fill="black" xlink:href="#corner"/>
				<use transform="translate(38 0)" fill="black" xlink:href="#corner"/>
				<use transform="translate(21 50) scale(-1 -1)" fill="black" xlink:href="#corner"/>
				<use transform="translate(59 0) scale(-1 1)" fill="black" xlink:href="#corner"/>
				<use transform="translate(59 50) scale(-1 -1)" fill="black" xlink:href="#corner"/>
			</mask>
			<rect x="0" y="0" width="59" height="50" mask="url(#lane-n-mask)"/>
		</g>

		<g transform="translate(183)" id="lane-e">
			<mask id="lane-e-mask">
				<rect fill="white" x="0" y="0" width="21" height="50"/>
				<rect fill="white" x="20" y="0" width="22" height="9"/>
				<rect fill="white" x="20" y="23" width="19" height="9"/>
				<rect fill="white" x="20" y="41" width="22" height="9"/>
				<use fill="black" xlink:href="#corner"/>
				<use transform="translate(0 50) scale(1 -1)" fill="black" xlink:href="#corner"/>
				<use transform="translate(42 0) scale(-1 1)" fill="black" xlink:href="#corner"/>
				<use transform="translate(42 9) scale(-1 -1)" fill="black" xlink:href="#corner"/>
				<use transform="translate(39 23) scale(-1 1)" fill="black" xlink:href="#corner"/>
				<use transform="translate(39 32) scale(-1 -1)" fill="black" xlink:href="#corner"/>
				<use transform="translate(42 41) scale(-1 1)" fill="black" xlink:href="#corner"/>
				<use transform="translate(42 50) scale(-1 -1)" fill="black" xlink:href="#corner"/>
			</mask>
			<rect x="0" y="0" width="42" height="50" mask="url(#lane-e-mask)"/>
		</g>

		<text textLength="226" lengthAdjust="spacingAndGlyphs" transform="translate(0 67.5) scale(1 1.2)" font-family="Triggering Fanfares" font-size="18.1">list and nothing else</text>
	</g>
</g>

</svg>
